<svg width="17" height="23" viewBox="0 0 17 23" fill="none" xmlns="http://www.w3.org/2000/svg">
<mask id="path-1-inside-1_1202_866" fill="white">
<path d="M4.94266 13.8158L3.8335 22.1666L8.41683 19.4166L13.0002 22.1666L11.891 13.8066"/>
</mask>
<path d="M4.94266 13.8158L3.8335 22.1666L8.41683 19.4166L13.0002 22.1666L11.891 13.8066" fill="#196500"/>
<path d="M6.4296 14.0133C6.53868 13.1921 5.96137 12.4379 5.14016 12.3289C4.31894 12.2198 3.5648 12.7971 3.45572 13.6183L6.4296 14.0133ZM3.8335 22.1666L2.34655 21.9691C2.27072 22.5401 2.52853 23.1041 3.00994 23.4203C3.49135 23.7366 4.11133 23.7492 4.60524 23.4529L3.8335 22.1666ZM8.41683 19.4166L9.18857 18.1304C8.71355 17.8454 8.12011 17.8454 7.64509 18.1304L8.41683 19.4166ZM13.0002 22.1666L12.2284 23.4529C12.7223 23.7492 13.3422 23.7366 13.8236 23.4204C14.305 23.1042 14.5629 22.5403 14.4871 21.9694L13.0002 22.1666ZM13.378 13.6094C13.269 12.7881 12.5149 12.2107 11.6937 12.3197C10.8725 12.4286 10.2951 13.1827 10.404 14.0039L13.378 13.6094ZM3.45572 13.6183L2.34655 21.9691L5.32044 22.3641L6.4296 14.0133L3.45572 13.6183ZM4.60524 23.4529L9.18857 20.7029L7.64509 18.1304L3.06175 20.8804L4.60524 23.4529ZM7.64509 20.7029L12.2284 23.4529L13.7719 20.8804L9.18857 18.1304L7.64509 20.7029ZM14.4871 21.9694L13.378 13.6094L10.404 14.0039L11.5132 22.3639L14.4871 21.9694Z" fill="#196500" mask="url(#path-1-inside-1_1202_866)"/>
<path d="M8.41667 15.5833C12.3747 15.5833 15.5833 12.3747 15.5833 8.41667C15.5833 4.45863 12.3747 1.25 8.41667 1.25C4.45863 1.25 1.25 4.45863 1.25 8.41667C1.25 12.3747 4.45863 15.5833 8.41667 15.5833Z" fill="#196500" stroke="#D6F6D7" stroke-width="1.5" stroke-linecap="round" stroke-linejoin="round"/>
</svg>
