<svg width="32" height="30" viewBox="0 0 32 30" fill="none" xmlns="http://www.w3.org/2000/svg">
<path d="M7.55891 26.1626L12.973 19.5975L15.4495 22.7563L10.6761 28.8266C8.84798 31.1495 5.46516 28.7016 7.55891 26.1626ZM13.8818 11.212C14.3975 9.52974 14.1605 8.09224 12.223 5.95683L7.4886 0.261514C6.81673 -0.527548 5.23339 0.631306 5.89485 1.58704L9.68131 6.2511C10.3975 7.12089 9.06673 8.27193 8.32714 7.3761L4.41048 2.55318C3.68131 1.71724 2.1735 2.82141 2.93652 3.77714C4.04069 5.10526 5.74902 7.27453 6.85319 8.60266C7.61881 9.38131 6.45475 10.535 5.69954 9.5636L1.81152 4.77193C1.24121 4.15214 0.308915 4.53756 0.0615188 5.26151C-0.204106 6.03495 0.44954 6.60006 0.894852 7.17297L5.23339 12.7771C6.57975 14.337 8.08496 15.2615 9.83496 14.7381C10.1032 14.6573 10.4313 14.4933 10.7829 14.2771L22.4391 29.324C23.0667 30.1339 24.2777 30.2198 25.0641 29.5662L25.2438 29.4178C26.1292 28.6808 26.2725 27.3344 25.5146 26.4646L13.1709 12.2823C13.5303 11.8813 13.7933 11.5011 13.8818 11.212ZM17.1813 14.4933L19.1006 12.1652C16.6318 6.04537 25.7803 -2.11088 30.2152 1.63912C35.6032 6.19901 27.5954 17.1886 21.9678 14.4725L19.6943 17.3605L17.1813 14.4933Z" fill="white"/>
</svg>
