<svg width="16" height="16" viewBox="0 0 16 16" fill="none" xmlns="http://www.w3.org/2000/svg">
<mask id="mask0_743_2445" style="mask-type:alpha" maskUnits="userSpaceOnUse" x="0" y="0" width="16" height="16">
<circle cx="8" cy="8" r="8" fill="#D9D9D9"/>
</mask>
<g mask="url(#mask0_743_2445)">
<path d="M-1 -1H16.5V16.5H-1V-1Z" fill="#012169"/>
<path d="M16.5 -1V1.1875L10.0059 7.75L16.5 14.1416V16.5H14.21L7.68164 10.0742L1.32422 16.5H-1V14.1758L5.35742 7.78418L-1 1.5293V-1H1.11914L7.68164 5.42578L14.0391 -1H16.5Z" fill="white"/>
<path d="M5.28906 10.0742L5.66504 11.2363L0.435547 16.5H-1V16.3975L5.28906 10.0742ZM9.52734 9.66406L11.373 9.9375L16.5 14.9619V16.5L9.52734 9.66406ZM16.5 -1L9.9375 5.69922L9.80078 4.19531L14.9277 -1H16.5ZM-1 -0.96582L5.59668 5.49414L3.58008 5.2207L-1 0.674805V-0.96582Z" fill="#C8102E"/>
<path d="M5.01562 -1V16.5H10.4844V-1H5.01562ZM-1 5.01562V10.4844H16.5V5.01562H-1Z" fill="white"/>
<path d="M-1 6.10938V9.39062H16.5V6.10938H-1ZM6.10938 -1V16.5H9.39062V-1H6.10938Z" fill="#C8102E"/>
</g>
</svg>
